#N canvas 0 19 958 499 10;
#X obj 179 -71 stream_looper~;
#X obj 156 -116 bng 15 250 50 0 empty empty empty 17 7 0 10 -262144
-1 -1;
#X obj 179 -47 print;
#X floatatom 38 160 5 0 0 0 - - -;
#X obj 219 -47 dac~;
#X obj 219 -94 adc~;
#X floatatom 112 160 5 0 0 0 - - -;
#X msg 112 212 /stream-looper/Recording/Period \$1;
#X obj 313 -55 hid;
#X msg 313 -84 print;
#X obj 286 -84 tgl 15 0 empty empty empty 17 7 0 10 -262144 -1 -1 1
1;
#X floatatom 72 63 5 0 0 0 - - -;
#X obj 38 87 +;
#X obj 290 3 loadbang;
#X obj 38 63 * -1;
#X msg 290 25 255;
#X obj 38 109 + 1;
#X obj 38 132 * 128;
#X obj 313 -32 route abs key;
#X msg 516 163 /stream-looper/Pause-Recording \$1;
#X msg 588 188 /stream-looper/Bypass \$1;
#X obj 588 59 * -1;
#X obj 588 85 + 1;
#X floatatom 150 64 5 0 0 0 - - -;
#X obj 112 88 +;
#X obj 112 64 * -1;
#X obj 112 110 + 1;
#X obj 112 133 * 128;
#X obj 623 132 tgl 15 0 empty empty empty 17 7 0 10 -262144 -1 -1 0
1;
#X msg 623 216 /stream-looper/Limit-to-Rec-Period \$1;
#X floatatom 361 -137 5 0 0 0 - - -;
#X obj 516 58 +;
#X floatatom 546 58 5 0 0 0 - - -;
#X msg 38 186 /stream-looper/Playback/Period \$1;
#X msg 189 237 /stream-looper/Playback/Start \$1;
#X msg 265 265 /stream-looper/Recording/Start \$1;
#X floatatom 189 163 5 0 0 0 - - -;
#X floatatom 265 162 5 0 0 0 - - -;
#X floatatom 223 66 5 0 0 0 - - -;
#X obj 189 90 +;
#X obj 189 66 * -1;
#X obj 189 112 + 1;
#X obj 189 135 * 128;
#X floatatom 297 65 5 0 0 0 - - -;
#X obj 265 90 +;
#X obj 265 66 * -1;
#X obj 265 112 + 1;
#X obj 265 135 * 128;
#X obj 516 108 bang;
#X obj 516 34 change;
#X obj 516 132 tgl 15 0 empty empty empty 17 7 0 10 -262144 -1 -1 0
1;
#X obj 516 83 change;
#X obj 99 3 route abs_y abs_x abs_rz abs_z;
#X obj 265 290 spigot;
#X obj 424 59 +;
#X floatatom 453 59 5 0 0 0 - - -;
#X obj 424 109 bang;
#X obj 424 35 change;
#X obj 424 133 tgl 15 0 empty empty empty 17 7 0 10 -262144 -1 -1 0
1;
#X obj 424 84 change;
#X obj 350 3 route btn_8 btn_9;
#X obj 474 3 route btn_0 btn_2 btn_1 btn_3;
#X obj 350 58 +;
#X floatatom 380 58 5 0 0 0 - - -;
#X obj 350 108 bang;
#X obj 350 34 change;
#X obj 350 133 tgl 15 0 empty empty empty 17 7 0 10 -262144 -1 -1 0
1;
#X obj 350 83 change;
#X obj 189 264 spigot;
#X obj 623 57 +;
#X floatatom 653 57 5 0 0 0 - - -;
#X obj 623 107 bang;
#X obj 623 33 change;
#X obj 623 82 change;
#X obj 588 245 send looper;
#X obj 179 -117 receive looper;
#X obj 189 320 send looper;
#X obj 398 -137 loadbang;
#X msg 361 -85 open 4;
#X msg 361 -110 set open \$1;
#X obj 707 106 loadbang;
#X msg 707 132 1;
#X text 705 87 Bypass by default;
#X text 454 -140 Hit "print" to find out which device number your controller
has and enter that in the number field. This will be remembered upon
restarts. Activating the toggle button activates the controller.;
#X text 247 186 left stick (vertical);
#X text 324 213 left stick (horizontal);
#X text 390 238 right stick (vertical);
#X text 472 266 right stick (horizontal);
#X text 745 188 button 2 (switch);
#X text 36 -134 Hit this for information about the effect controlls.
;
#X text 727 164 button 1 (switch) \, button 3 (toggle);
#X text 856 218 button 4;
#X text 366 134 button 9;
#X text 439 134 button 10;
#X connect 0 0 2 0;
#X connect 0 1 4 0;
#X connect 0 2 4 1;
#X connect 1 0 0 0;
#X connect 3 0 33 0;
#X connect 5 0 0 1;
#X connect 5 1 0 2;
#X connect 6 0 7 0;
#X connect 7 0 76 0;
#X connect 8 0 18 0;
#X connect 9 0 8 0;
#X connect 10 0 8 0;
#X connect 11 0 12 1;
#X connect 12 0 16 0;
#X connect 13 0 15 0;
#X connect 14 0 12 0;
#X connect 15 0 11 0;
#X connect 15 0 23 0;
#X connect 15 0 38 0;
#X connect 15 0 43 0;
#X connect 16 0 17 0;
#X connect 17 0 3 0;
#X connect 18 0 52 0;
#X connect 18 1 61 0;
#X connect 18 1 60 0;
#X connect 19 0 74 0;
#X connect 20 0 74 0;
#X connect 21 0 22 0;
#X connect 22 0 20 0;
#X connect 23 0 24 1;
#X connect 24 0 26 0;
#X connect 25 0 24 0;
#X connect 26 0 27 0;
#X connect 27 0 6 0;
#X connect 28 0 29 0;
#X connect 29 0 74 0;
#X connect 30 0 79 0;
#X connect 31 0 32 0;
#X connect 31 0 51 0;
#X connect 32 0 31 1;
#X connect 33 0 76 0;
#X connect 34 0 68 0;
#X connect 35 0 53 0;
#X connect 36 0 34 0;
#X connect 37 0 35 0;
#X connect 38 0 39 1;
#X connect 39 0 41 0;
#X connect 40 0 39 0;
#X connect 41 0 42 0;
#X connect 42 0 36 0;
#X connect 43 0 44 1;
#X connect 44 0 46 0;
#X connect 45 0 44 0;
#X connect 46 0 47 0;
#X connect 47 0 37 0;
#X connect 48 0 50 0;
#X connect 49 0 31 0;
#X connect 50 0 19 0;
#X connect 51 0 48 0;
#X connect 52 0 14 0;
#X connect 52 1 25 0;
#X connect 52 2 40 0;
#X connect 52 3 45 0;
#X connect 53 0 76 0;
#X connect 54 0 55 0;
#X connect 54 0 59 0;
#X connect 55 0 54 1;
#X connect 56 0 58 0;
#X connect 57 0 54 0;
#X connect 58 0 53 1;
#X connect 59 0 56 0;
#X connect 60 0 65 0;
#X connect 60 1 57 0;
#X connect 61 0 50 0;
#X connect 61 1 49 0;
#X connect 61 2 21 0;
#X connect 61 3 72 0;
#X connect 62 0 63 0;
#X connect 62 0 67 0;
#X connect 63 0 62 1;
#X connect 64 0 66 0;
#X connect 65 0 62 0;
#X connect 66 0 68 1;
#X connect 67 0 64 0;
#X connect 68 0 76 0;
#X connect 69 0 70 0;
#X connect 69 0 73 0;
#X connect 70 0 69 1;
#X connect 71 0 28 0;
#X connect 72 0 69 0;
#X connect 73 0 71 0;
#X connect 75 0 0 0;
#X connect 77 0 78 0;
#X connect 78 0 8 0;
#X connect 79 0 78 0;
#X connect 80 0 81 0;
#X connect 81 0 20 0;
